<svg version="1.1" id="Layer_1" xmlns="http://www.w3.org/2000/svg" xmlns:xlink="http://www.w3.org/1999/xlink" x="0px" y="0px"
	 width="100" height="" viewBox="0 0 2346 552" enable-background="new 0 0 2346 552" xml:space="preserve">
<path fill="#82DEE4" opacity="1.000000" stroke="none" 
	d="
M2345.000000,553.000000 
	C1563.725830,553.000000 782.451599,553.000000 1.088718,553.000000 
	C1.088718,369.073120 1.088718,185.146164 1.088718,1.000000 
	C782.034912,1.000000 1563.069824,1.000000 2344.552246,1.461255 
	C2345.000000,185.615005 2345.000000,369.307495 2345.000000,553.000000 
M669.531006,329.314941 
	C669.995117,329.599060 670.459167,329.883148 671.294678,330.711853 
	C684.843872,344.967957 698.971252,358.729492 711.737671,373.655182 
	C720.147156,383.487091 729.781555,387.835999 742.022827,381.906372 
	C753.228882,376.478210 760.190979,365.984528 751.657593,354.064392 
	C742.859924,341.775055 733.014648,330.178741 722.994507,318.838745 
	C714.432922,309.149475 704.974243,300.252869 696.547424,290.739410 
	C708.707336,282.178619 718.588440,271.493530 725.585449,258.380280 
	C736.347717,238.210190 734.175537,218.325806 719.514771,200.881012 
	C717.670532,198.686569 715.087646,197.112869 712.276062,194.879456 
	C711.022339,193.346970 709.765442,191.817017 708.515320,190.281616 
	C697.978516,177.340820 684.415405,169.873520 667.757812,168.907181 
	C645.864990,167.637100 628.961121,177.612091 615.458496,193.942154 
	C603.221863,208.741089 596.278625,225.980667 593.903320,244.982864 
	C591.130249,267.167847 588.433105,289.366028 586.092407,311.599487 
	C585.211853,319.963959 585.589783,328.453308 585.087524,336.867401 
	C584.616882,344.751892 584.064026,352.657043 582.976868,360.473785 
	C580.684448,376.955505 584.207031,385.009460 597.370789,392.523590 
	C599.056580,395.160858 600.238892,398.392883 602.521484,400.325195 
	C609.692993,406.396057 618.215942,406.576294 626.538879,403.536438 
	C634.722107,400.547638 640.101746,394.483429 640.936401,385.453491 
	C642.433899,369.250824 643.653259,353.022522 645.003235,336.806122 
	C645.644531,329.101929 646.318909,321.400513 647.027344,313.124786 
	C652.495605,316.655304 657.298462,319.756226 662.064270,322.951599 
	C662.064270,322.951599 662.136169,322.880005 662.358093,323.497101 
	C663.593201,324.303925 664.828247,325.110748 665.996338,325.992096 
	C665.996338,325.992096 666.070679,325.926941 666.321655,326.459381 
	C666.845642,326.695831 667.369690,326.932251 667.914612,327.086609 
	C667.914612,327.086609 667.834900,327.115295 667.953186,327.659760 
	C668.375183,327.983368 668.797119,328.306976 669.268799,328.732117 
	C669.268799,328.732117 669.370178,328.782013 669.531006,329.314941 
M1335.972900,176.390900 
	C1335.689331,176.217072 1335.405884,176.043243 1334.955322,175.191635 
	C1330.849365,166.426392 1323.847290,162.004974 1314.332764,160.796387 
	C1282.156738,156.709305 1249.932373,156.481628 1217.657471,159.228333 
	C1210.610352,159.828064 1204.541016,162.403275 1199.859741,168.059662 
	C1190.850342,178.945862 1192.931641,199.021683 1206.776733,203.586792 
	C1207.933716,203.968292 1208.975342,205.412521 1209.590454,206.609695 
	C1213.721191,214.650269 1221.123413,218.407639 1230.208252,217.323807 
	C1233.714233,216.905548 1237.312012,217.255569 1241.014160,217.255569 
	C1241.014160,218.667603 1241.065063,219.658722 1241.006592,220.643356 
	C1238.876343,256.535431 1236.910400,292.438629 1234.513916,328.312988 
	C1233.512573,343.303589 1236.291504,349.274536 1248.895630,355.829498 
	C1251.947998,364.804413 1260.016602,369.678162 1270.496094,368.877106 
	C1281.469238,368.038300 1290.795654,360.709167 1291.814331,351.107635 
	C1293.182251,338.213165 1293.937012,325.247650 1294.721069,312.298431 
	C1296.561768,281.897980 1298.313110,251.491776 1299.955688,221.080063 
	C1300.148926,217.499344 1301.503052,216.441467 1304.880981,216.834091 
	C1310.826660,217.525162 1316.788818,218.229065 1322.762573,218.477371 
	C1328.027832,218.696228 1333.576294,219.271378 1338.538696,217.953293 
	C1346.428345,215.857590 1350.742554,208.192719 1350.586792,199.283646 
	C1350.405029,188.886902 1344.456665,179.616806 1336.085083,176.811493 
	C1336.085083,176.811493 1336.161987,176.857681 1335.972900,176.390900 
M1598.728760,161.429382 
	C1595.728638,157.828949 1593.382324,153.164856 1589.598755,150.839035 
	C1580.377197,145.170563 1566.609863,148.379105 1559.711670,156.687698 
	C1555.068848,162.279953 1554.449463,168.991562 1553.787964,175.833801 
	C1549.532715,219.849136 1545.188354,263.855927 1540.803589,307.858582 
	C1539.902100,316.905060 1543.269043,323.657684 1550.970703,328.358093 
	C1552.527710,329.308350 1554.039551,330.332458 1555.731445,332.011078 
	C1557.075928,334.078339 1558.144409,336.407532 1559.813721,338.166473 
	C1566.286255,344.986206 1574.453003,346.682373 1583.207275,344.359711 
	C1611.714722,336.796143 1640.516846,331.112823 1669.970459,328.749481 
	C1682.023560,327.782379 1690.590454,319.606720 1691.974365,309.077484 
	C1693.610352,296.629822 1689.174072,288.606537 1677.948242,283.248230 
	C1674.586426,274.749176 1668.294800,270.221893 1659.199097,270.513550 
	C1651.602661,270.757111 1644.012451,271.640045 1636.454712,272.537109 
	C1625.302368,273.860840 1614.181396,275.448364 1603.300659,276.161530 
	C1606.441528,244.800476 1609.723999,213.452591 1612.640747,182.070709 
	C1613.570190,172.069229 1608.660645,165.558411 1598.728760,161.429382 
M456.980469,217.943085 
	C454.778442,254.634079 452.870728,291.346405 450.213074,328.004395 
	C449.296570,340.645630 451.919434,350.346039 464.712952,356.058960 
	C468.021576,365.136719 476.504303,370.003021 487.021667,368.856750 
	C498.128418,367.646210 507.036285,359.550262 507.876068,349.358124 
	C509.036041,335.280426 509.922546,321.178528 510.787476,307.078522 
	C512.538025,278.542236 514.254578,250.003510 515.816711,221.456558 
	C516.014893,217.833252 516.972839,216.419266 520.811279,216.812744 
	C530.067200,217.761505 539.346436,218.645035 548.638062,219.033218 
	C556.429382,219.358734 562.473450,214.773804 564.906677,207.485794 
	C569.011292,195.191544 562.683289,179.921616 550.765442,175.305603 
	C546.412842,166.256607 539.123413,161.840012 529.218506,160.627396 
	C497.217560,156.709702 465.178467,156.529129 433.109528,159.245346 
	C420.281555,160.331879 412.259460,168.021057 410.415802,180.543625 
	C409.025818,189.984512 411.982086,200.046860 424.729828,205.083588 
	C428.154846,213.797485 433.428864,217.811752 442.121979,217.833008 
	C447.056152,217.845062 451.991577,217.339691 456.980469,217.943085 
M1951.896973,228.179688 
	C1951.545044,222.861176 1953.277832,218.300491 1957.348877,214.897247 
	C1961.139526,211.728561 1965.070801,208.683289 1969.193970,205.969604 
	C1973.331543,203.246658 1978.225098,201.541504 1982.014648,198.444687 
	C1993.784058,188.826447 1989.269165,169.370911 1973.648071,162.398743 
	C1965.221558,148.011734 1953.696899,143.620010 1940.395142,150.140091 
	C1923.808472,158.270340 1910.725586,170.409698 1902.018433,186.687897 
	C1892.466675,204.545013 1889.833374,223.230042 1900.964966,241.289093 
	C1905.562256,248.747574 1912.732178,254.620483 1918.979004,261.842590 
	C1927.952637,273.846191 1941.247681,279.542419 1954.604614,286.384155 
	C1958.875122,292.222992 1959.239136,298.716187 1957.324097,305.351349 
	C1954.997192,313.414551 1948.937866,317.556641 1941.077271,318.985474 
	C1930.018677,320.995636 1919.842041,321.893097 1910.301392,312.381866 
	C1900.296997,302.408203 1881.183838,306.910889 1874.130859,319.316345 
	C1871.550537,323.854858 1871.202637,328.694550 1873.285034,333.668396 
	C1876.763672,341.978027 1883.423218,347.460724 1890.326294,353.362030 
	C1890.526001,353.603760 1890.767700,353.791260 1891.165771,354.410400 
	C1891.300415,354.739380 1891.534790,354.964325 1892.153931,355.697723 
	C1893.721924,357.406616 1895.154419,359.267944 1896.878906,360.800903 
	C1915.169067,377.059448 1936.652710,381.501892 1960.095093,376.818268 
	C1993.197388,370.204651 2019.549316,344.131195 2015.885132,306.145874 
	C2014.001343,286.617188 2005.338013,270.374634 1989.915283,257.395782 
	C1989.731201,257.166077 1989.511963,256.977173 1988.988037,256.377777 
	C1988.673950,256.233307 1988.359741,256.088867 1987.646240,255.412231 
	C1985.807861,253.305130 1983.966553,251.200500 1982.131348,249.090546 
	C1973.903931,239.631241 1962.758057,234.567383 1951.896973,228.179688 
M1785.152466,226.819031 
	C1785.853638,221.727921 1786.445435,216.618759 1787.282715,211.550156 
	C1788.392456,204.831909 1788.884766,204.870117 1795.627441,205.257202 
	C1808.906494,206.019485 1822.208252,206.701935 1835.503540,206.765396 
	C1845.982910,206.815445 1853.579346,199.802231 1854.914185,190.183319 
	C1856.739624,177.030258 1849.516846,165.822021 1840.557739,163.422699 
	C1836.548950,153.826050 1829.208862,149.003906 1818.954712,148.448975 
	C1814.138550,148.188339 1809.315796,147.945984 1804.494263,147.905701 
	C1787.703857,147.765335 1770.889526,147.147995 1754.130127,147.833786 
	C1742.973267,148.290344 1736.071655,155.593582 1734.067749,166.635834 
	C1731.929932,178.415222 1729.782227,190.200409 1728.032837,202.041260 
	C1722.031494,242.662231 1716.173950,283.304596 1710.350098,323.951477 
	C1709.741577,328.198608 1709.118774,332.592194 1709.554565,336.809052 
	C1710.415405,345.138184 1717.027588,348.828522 1723.711426,353.053528 
	C1727.219849,362.593353 1739.446045,368.480865 1751.419922,366.609528 
	C1758.298706,365.534454 1765.208496,364.299896 1772.141724,363.998932 
	C1792.373535,363.120636 1812.622559,362.613068 1832.867920,362.085480 
	C1844.117065,361.792328 1851.933838,355.655609 1853.729736,345.249390 
	C1855.751343,333.535614 1849.534546,321.040527 1839.535034,318.495575 
	C1836.126343,310.370361 1830.272583,305.253204 1821.366699,304.262512 
	C1817.418945,303.823334 1813.403442,303.797913 1809.424072,303.872040 
	C1797.358887,304.096802 1785.296387,304.461884 1773.162720,303.985657 
	C1773.779053,299.387726 1774.552002,294.803711 1774.962646,290.187439 
	C1775.299561,286.400391 1776.703125,284.640930 1780.852661,284.931030 
	C1789.616943,285.543762 1798.406738,285.918884 1807.191650,286.076416 
	C1817.794189,286.266541 1826.208130,278.482452 1828.421021,266.829987 
	C1830.245117,257.224915 1824.649902,247.743210 1814.551270,243.481155 
	C1812.032471,237.446625 1807.993896,232.560333 1801.770508,230.576187 
	C1796.521851,228.902771 1790.859009,228.528580 1785.152466,226.819031 
M787.018799,352.770599 
	C791.537109,363.139771 802.453491,368.160034 815.152710,366.681396 
	C831.467407,364.781799 847.835754,363.172028 864.225403,362.147797 
	C874.995605,361.474762 885.845276,362.161865 896.657349,362.048096 
	C908.441345,361.924133 915.414429,355.736053 917.388977,343.968964 
	C919.210205,333.115234 913.088440,322.319122 902.782532,318.241394 
	C898.941650,309.341888 892.300354,304.126343 882.508240,304.078949 
	C867.263672,304.005127 852.016846,304.396545 836.792664,303.632782 
	C837.598450,297.582825 838.404236,291.532898 839.239197,285.263947 
	C841.298828,285.163483 842.931824,284.962128 844.554688,285.025024 
	C853.018555,285.353210 861.476562,285.911102 869.942749,286.079132 
	C880.415039,286.286957 889.547729,278.764709 891.691284,268.514313 
	C893.970947,257.613464 888.703918,247.945480 877.801880,243.180252 
	C874.173645,235.024139 867.930908,230.115067 859.181763,228.572754 
	C855.613708,227.943756 851.955444,227.826752 848.448059,226.522003 
	C849.300598,221.103806 850.410034,215.709854 850.924255,210.259735 
	C851.336731,205.888947 853.409485,204.837570 857.469849,205.072098 
	C870.408936,205.819534 883.363037,206.325348 896.315002,206.827240 
	C908.444763,207.297241 916.550171,201.078445 918.593872,189.893631 
	C920.624207,178.781937 914.392395,167.413757 903.919373,163.089890 
	C899.788330,154.188019 892.999573,148.804871 883.057678,148.498642 
	C862.923279,147.878448 842.780090,147.443726 822.637512,147.240250 
	C814.799011,147.161057 806.845764,148.634155 802.432434,155.854263 
	C799.494629,160.660522 797.491577,166.456253 796.631470,172.049225 
	C788.690369,223.687897 781.060913,275.374664 773.409790,327.057709 
	C771.414490,340.535889 774.454590,345.977875 787.018799,352.770599 
M1030.078979,333.714813 
	C1031.154419,335.576508 1032.048096,337.576050 1033.336792,339.276154 
	C1039.022217,346.777527 1051.289673,349.754242 1061.018311,346.117981 
	C1069.702637,342.872040 1073.943604,335.967712 1072.905640,325.427979 
	C1070.929688,305.362305 1065.566406,286.258301 1055.061035,268.888763 
	C1050.795166,261.835785 1045.919189,255.151840 1041.096802,247.966080 
	C1057.922974,232.516403 1070.230225,213.653870 1081.967651,194.306290 
	C1090.368042,180.459244 1086.782104,167.348190 1071.735718,159.385818 
	C1064.944824,143.194427 1039.610718,137.763443 1030.353027,157.509781 
	C1029.724487,158.850510 1028.886597,160.105804 1028.046021,161.332275 
	C1020.395447,172.495422 1012.722717,183.643372 1005.052002,193.887512 
	C1005.268127,184.810593 1005.341431,175.727448 1005.735474,166.658264 
	C1006.258606,154.621002 1001.401733,146.148254 991.530151,142.521393 
	C985.164307,129.939774 974.156494,124.935844 962.024719,129.108871 
	C951.843567,132.610901 947.492798,139.808273 947.110474,152.460464 
	C946.270813,180.246185 945.881348,208.072159 943.993835,235.792191 
	C942.038757,264.503632 938.527100,293.108948 935.704285,321.761475 
	C934.845032,330.482513 936.546875,338.396912 943.501038,344.353577 
	C945.727478,346.260620 948.444336,347.595123 951.053406,349.870972 
	C955.759766,359.333405 964.067200,363.610382 974.371582,361.876007 
	C984.434692,360.182281 991.524231,353.567352 992.645691,344.176758 
	C994.891174,325.373718 996.831665,306.534393 999.003906,287.722260 
	C999.528931,283.175262 1000.466370,278.675842 1001.670959,274.743103 
	C1008.491333,285.406891 1012.897705,296.966095 1014.237061,309.581696 
	C1015.367188,320.226929 1019.407410,328.785034 1030.078979,333.714813 
M1464.982788,333.993988 
	C1465.130737,340.443329 1465.312866,346.892120 1465.417969,353.342163 
	C1465.544678,361.122040 1467.530640,368.083191 1474.133667,372.927307 
	C1476.251709,374.481201 1478.611816,375.705353 1480.937744,377.795105 
	C1485.878784,388.863831 1499.201294,393.919220 1510.752808,389.108917 
	C1520.347046,385.113678 1524.196167,378.411835 1523.863159,365.752258 
	C1523.351318,346.301300 1522.777100,326.851501 1522.111572,307.405243 
	C1521.127686,278.653900 1520.598511,249.869446 1518.713135,221.175491 
	C1517.994629,210.239609 1514.703491,199.312347 1511.364746,188.767410 
	C1509.258423,182.114914 1505.551514,175.595108 1497.372070,172.702667 
	C1496.949463,172.193054 1496.425171,171.737823 1496.119263,171.165817 
	C1488.267090,156.478912 1475.468628,154.580795 1461.286987,160.871414 
	C1447.055542,167.184082 1436.270752,177.610611 1426.843018,189.660675 
	C1412.511475,207.978775 1402.013794,228.434082 1393.481079,249.949738 
	C1382.147705,278.527374 1375.731934,308.424072 1370.030884,338.501740 
	C1369.597412,340.787903 1369.270996,343.094818 1368.814697,345.376038 
	C1365.350830,362.686951 1367.916870,368.871979 1382.734375,379.053192 
	C1388.659790,389.339844 1398.663208,394.560822 1409.133667,392.831573 
	C1418.109863,391.349152 1422.709961,385.295715 1425.161377,372.085663 
	C1427.370483,360.181091 1429.807495,348.318634 1431.983765,336.408295 
	C1432.595215,333.062195 1433.944702,331.617676 1437.579834,331.856140 
	C1446.682861,332.453247 1455.809570,332.686859 1464.982788,333.993988 
z"/>
<path fill="#E7E9ED" opacity="1.000000" stroke="none" 
	d="
M2345.500000,553.000000 
	C2345.000000,369.307495 2345.000000,185.615005 2345.000000,1.461268 
	C2345.666748,1.333361 2346.783447,1.548084 2346.908691,2.024073 
	C2347.196289,3.114961 2347.000000,4.333333 2347.000000,5.500000 
	C2347.000000,186.500000 2347.002441,367.500000 2346.958740,548.500000 
	C2346.958252,550.000061 2346.333496,551.500000 2345.500000,553.000000 
z"/>
<path fill="#545858" opacity="1.000000" stroke="none" 
	d="
M597.309570,391.824646 
	C584.207031,385.009460 580.684448,376.955505 582.976868,360.473785 
	C584.064026,352.657043 584.616882,344.751892 585.087524,336.867401 
	C585.589783,328.453308 585.211853,319.963959 586.092407,311.599487 
	C588.433105,289.366028 591.130249,267.167847 593.903320,244.982864 
	C596.278625,225.980667 603.221863,208.741089 615.458496,193.942154 
	C628.961121,177.612091 645.864990,167.637100 667.757812,168.907181 
	C684.415405,169.873520 697.978516,177.340820 708.515320,190.281616 
	C709.765442,191.817017 711.022339,193.346970 712.607300,195.426239 
	C713.411926,197.209412 713.810852,198.480621 714.370422,199.676712 
	C718.876465,209.308990 720.291199,219.313629 718.071838,229.767487 
	C714.991211,244.277771 706.809082,255.836166 696.652405,266.135193 
	C692.153259,270.697357 687.150452,274.762756 682.023376,279.370758 
	C686.820923,283.389679 691.366638,287.197662 695.912415,291.005646 
	C704.974243,300.252869 714.432922,309.149475 722.994507,318.838745 
	C733.014648,330.178741 742.859924,341.775055 751.657593,354.064392 
	C760.190979,365.984528 753.228882,376.478210 742.022827,381.906372 
	C729.781555,387.835999 720.147156,383.487091 711.737671,373.655182 
	C698.971252,358.729492 684.843872,344.967957 671.016968,330.176117 
	C670.282837,329.354248 669.826538,329.068115 669.370178,328.782013 
	C669.370178,328.782013 669.268799,328.732117 669.174255,328.415894 
	C668.664795,327.771576 668.249817,327.443420 667.834900,327.115295 
	C667.834900,327.115295 667.914612,327.086609 667.782166,326.853210 
	C667.123352,326.388824 666.597046,326.157898 666.070679,325.926941 
	C666.070679,325.926941 665.996338,325.992096 665.966919,325.618347 
	C664.670349,324.456390 663.403259,323.668182 662.136169,322.880005 
	C662.136169,322.880005 662.064270,322.951599 662.031372,322.567444 
	C659.520264,319.778961 657.229614,317.135162 654.526367,315.018097 
	C648.084900,309.973541 641.448486,305.177795 634.411499,299.923676 
	C633.786316,302.330963 633.253418,303.589630 633.154907,304.881409 
	C631.727051,323.592407 630.531372,342.323120 628.891296,361.014984 
	C628.205017,368.835602 628.762207,377.110596 622.857239,383.670868 
	C615.890686,391.410461 606.987732,392.752472 597.309570,391.824646 
z"/>
<path fill="#545454" opacity="1.000000" stroke="none" 
	d="
M1382.548218,378.387238 
	C1367.916870,368.871979 1365.350830,362.686951 1368.814697,345.376038 
	C1369.270996,343.094818 1369.597412,340.787903 1370.030884,338.501740 
	C1375.731934,308.424072 1382.147705,278.527374 1393.481079,249.949738 
	C1402.013794,228.434082 1412.511475,207.978775 1426.843018,189.660675 
	C1436.270752,177.610611 1447.055542,167.184082 1461.286987,160.871414 
	C1475.468628,154.580795 1488.267090,156.478912 1496.119263,171.165817 
	C1496.425171,171.737823 1496.949463,172.193054 1497.652222,173.306763 
	C1504.744263,190.169693 1505.981201,207.463318 1506.909302,224.720779 
	C1507.936401,243.816162 1508.470825,262.943634 1508.898315,282.064331 
	C1509.460205,307.199341 1509.849731,332.340332 1510.026733,357.480804 
	C1510.105713,368.694336 1501.563110,376.886597 1490.354980,377.086548 
	C1487.191406,377.143005 1484.025757,377.085602 1480.861084,377.080414 
	C1478.611816,375.705353 1476.251709,374.481201 1474.133667,372.927307 
	C1467.530640,368.083191 1465.544678,361.122040 1465.417969,353.342163 
	C1465.312866,346.892120 1465.130737,340.443329 1464.984619,333.062622 
	C1464.969482,329.301361 1465.322266,326.398010 1464.780884,323.672211 
	C1464.506104,322.289581 1462.703735,320.289581 1461.446289,320.175537 
	C1454.341431,319.531219 1447.194336,319.329041 1440.058105,319.067017 
	C1435.402710,318.896057 1430.571411,319.622101 1426.126343,318.604187 
	C1420.629150,317.345367 1419.023315,319.458221 1418.186646,324.255737 
	C1415.932129,337.185333 1413.447632,350.075409 1410.985229,362.967987 
	C1409.110718,372.782227 1403.326294,378.704346 1393.827881,379.666138 
	C1390.148804,380.038666 1386.312744,378.859497 1382.548218,378.387238 
M1462.932617,250.228134 
	C1462.608154,240.491699 1462.283569,230.755264 1461.959106,221.018829 
	C1448.069458,236.594788 1438.884888,254.127518 1432.117188,273.755554 
	C1438.981689,274.143799 1445.062256,274.487701 1452.051514,274.847504 
	C1455.764526,274.847504 1459.477539,274.847504 1462.841187,274.847504 
	C1462.841187,266.588165 1462.841187,258.885895 1462.932617,250.228134 
z"/>
<path fill="#545454" opacity="1.000000" stroke="none" 
	d="
M950.936768,349.191589 
	C948.444336,347.595123 945.727478,346.260620 943.501038,344.353577 
	C936.546875,338.396912 934.845032,330.482513 935.704285,321.761475 
	C938.527100,293.108948 942.038757,264.503632 943.993835,235.792191 
	C945.881348,208.072159 946.270813,180.246185 947.110474,152.460464 
	C947.492798,139.808273 951.843567,132.610901 962.024719,129.108871 
	C974.156494,124.935844 985.164307,129.939774 991.722046,143.275269 
	C991.913940,164.785950 991.913940,185.542786 991.913940,207.938385 
	C996.824280,203.027969 1000.940369,198.911865 1005.056396,194.795746 
	C1012.722717,183.643372 1020.395447,172.495422 1028.046021,161.332275 
	C1028.886597,160.105804 1029.724487,158.850510 1030.353027,157.509781 
	C1039.610718,137.763443 1064.944824,143.194427 1071.942383,160.105316 
	C1074.246826,167.300842 1072.917358,173.321014 1069.576172,178.998642 
	C1058.432129,197.934891 1046.604248,216.384567 1030.631470,231.742538 
	C1028.131958,234.145981 1027.948364,235.769226 1030.038330,238.823898 
	C1036.019653,247.566498 1042.012451,256.390594 1046.948608,265.738220 
	C1054.482788,280.005859 1057.541870,295.659546 1059.561646,311.605865 
	C1061.053101,323.381226 1053.116943,333.833282 1041.361328,333.994202 
	C1037.575928,334.046051 1033.780396,333.360779 1029.989502,333.012726 
	C1019.407410,328.785034 1015.367188,320.226929 1014.237061,309.581696 
	C1012.897705,296.966095 1008.491333,285.406891 1001.380249,274.149780 
	C996.980286,268.355377 992.871033,263.154327 988.034851,257.033234 
	C987.382507,259.327545 987.122314,259.917114 987.054504,260.528015 
	C984.698364,281.762848 982.172791,302.981293 980.087280,324.242859 
	C978.747559,337.901276 974.499146,344.791809 963.492065,347.901215 
	C959.503784,349.027863 955.132996,348.800903 950.936768,349.191589 
z"/>
<path fill="#545454" opacity="1.000000" stroke="none" 
	d="
M848.338196,227.476822 
	C851.955444,227.826752 855.613708,227.943756 859.181763,228.572754 
	C867.930908,230.115067 874.173645,235.024139 877.967712,243.884644 
	C881.202026,261.736115 869.064819,274.852448 852.368286,272.926849 
	C844.818237,272.056122 837.142517,272.057343 829.529236,272.144135 
	C828.070435,272.160767 825.616577,274.243195 825.358826,275.683441 
	C823.755737,284.642700 822.546692,293.679169 821.526489,302.726044 
	C821.421143,303.660217 823.430664,305.745209 824.439819,305.732941 
	C828.554260,305.682983 832.661194,305.024841 836.770935,304.590820 
	C852.016846,304.396545 867.263672,304.005127 882.508240,304.078949 
	C892.300354,304.126343 898.941650,309.341888 902.993652,318.960938 
	C907.020996,334.210876 899.426880,350.370758 879.789978,349.121765 
	C867.058899,348.311951 854.227478,348.829468 841.449097,349.114868 
	C834.655212,349.266632 827.870789,350.112335 821.095825,350.783295 
	C809.719360,351.910065 798.412292,354.681366 786.897095,352.070557 
	C774.454590,345.977875 771.414490,340.535889 773.409790,327.057709 
	C781.060913,275.374664 788.690369,223.687897 796.631470,172.049225 
	C797.491577,166.456253 799.494629,160.660522 802.432434,155.854263 
	C806.845764,148.634155 814.799011,147.161057 822.637512,147.240250 
	C842.780090,147.443726 862.923279,147.878448 883.057678,148.498642 
	C892.999573,148.804871 899.788330,154.188019 904.088989,163.829437 
	C907.825073,179.602615 901.729370,195.072433 881.050537,193.209686 
	C868.355896,192.066132 855.530518,192.398956 842.766907,191.977005 
	C839.876648,191.881454 838.239746,192.503357 837.754578,195.850220 
	C836.447571,204.866211 834.743408,213.824783 833.185181,222.804123 
	C832.661438,225.822540 833.901855,227.038193 836.956238,227.024475 
	C840.749512,227.007431 844.544128,227.311462 848.338196,227.476822 
z"/>
<path fill="#545454" opacity="1.000000" stroke="none" 
	d="
M1773.232788,304.772339 
	C1785.296387,304.461884 1797.358887,304.096802 1809.424072,303.872040 
	C1813.403442,303.797913 1817.418945,303.823334 1821.366699,304.262512 
	C1830.272583,305.253204 1836.126343,310.370361 1839.763184,319.182251 
	C1843.817383,337.876709 1832.995361,350.739105 1814.713013,349.094513 
	C1806.023682,348.312897 1797.197021,348.712311 1788.448486,349.023773 
	C1778.021484,349.394928 1767.615845,350.325134 1757.193359,350.867004 
	C1745.985229,351.449615 1734.768555,351.862732 1723.555542,352.349823 
	C1717.027588,348.828522 1710.415405,345.138184 1709.554565,336.809052 
	C1709.118774,332.592194 1709.741577,328.198608 1710.350098,323.951477 
	C1716.173950,283.304596 1722.031494,242.662231 1728.032837,202.041260 
	C1729.782227,190.200409 1731.929932,178.415222 1734.067749,166.635834 
	C1736.071655,155.593582 1742.973267,148.290344 1754.130127,147.833786 
	C1770.889526,147.147995 1787.703857,147.765335 1804.494263,147.905701 
	C1809.315796,147.945984 1814.138550,148.188339 1818.954712,148.448975 
	C1829.208862,149.003906 1836.548950,153.826050 1840.791016,164.089279 
	C1842.368774,170.555191 1842.353027,176.217209 1840.029297,181.863419 
	C1837.404907,188.240326 1831.180420,193.089020 1824.299683,193.003967 
	C1809.511719,192.821182 1794.728149,192.254440 1779.940430,192.136200 
	C1778.091431,192.121414 1774.844360,193.589828 1774.593140,194.842026 
	C1772.734253,204.108521 1771.451904,213.491547 1770.030640,222.844360 
	C1769.576660,225.831924 1770.934204,227.040863 1773.963135,227.035309 
	C1777.768311,227.028336 1781.573975,227.381546 1785.379517,227.579315 
	C1790.859009,228.528580 1796.521851,228.902771 1801.770508,230.576187 
	C1807.993896,232.560333 1812.032471,237.446625 1814.759155,244.216095 
	C1814.999268,246.447266 1815.043823,247.943329 1815.061890,249.439728 
	C1815.233765,263.728119 1805.183228,273.524658 1790.863037,272.985046 
	C1782.739258,272.678894 1774.616089,272.338562 1766.496338,271.942169 
	C1763.785645,271.809814 1762.207153,272.496796 1761.819336,275.610931 
	C1760.733765,284.329163 1759.347656,293.009918 1758.087280,301.706482 
	C1757.605103,305.033356 1759.039551,306.263519 1762.343750,305.829163 
	C1765.957275,305.354187 1769.601807,305.114532 1773.232788,304.772339 
z"/>
<path fill="#545454" opacity="1.000000" stroke="none" 
	d="
M1989.257690,256.829041 
	C1989.511963,256.977173 1989.731201,257.166077 1990.038086,257.947357 
	C1992.920898,263.973938 1996.142212,269.268799 1998.362793,274.954468 
	C2009.225708,302.766479 2001.113525,333.735199 1975.884155,350.993958 
	C1951.084229,367.959106 1924.744019,369.951843 1897.457275,356.898376 
	C1895.706055,356.060699 1893.736694,355.679047 1891.868896,355.085205 
	C1891.534790,354.964325 1891.300415,354.739380 1891.032837,353.935730 
	C1890.697754,353.181213 1890.425659,353.017334 1890.083618,352.969452 
	C1883.423218,347.460724 1876.763672,341.978027 1873.285034,333.668396 
	C1871.202637,328.694550 1871.550537,323.854858 1874.130859,319.316345 
	C1881.183838,306.910889 1900.296997,302.408203 1910.301392,312.381866 
	C1919.842041,321.893097 1930.018677,320.995636 1941.077271,318.985474 
	C1948.937866,317.556641 1954.997192,313.414551 1957.324097,305.351349 
	C1959.239136,298.716187 1958.875122,292.222992 1954.266968,285.805969 
	C1953.514526,284.512665 1953.197388,283.714844 1952.670776,283.094757 
	C1943.570312,272.376923 1930.791992,267.351288 1918.731934,261.214569 
	C1912.732178,254.620483 1905.562256,248.747574 1900.964966,241.289093 
	C1889.833374,223.230042 1892.466675,204.545013 1902.018433,186.687897 
	C1910.725586,170.409698 1923.808472,158.270340 1940.395142,150.140091 
	C1953.696899,143.620010 1965.221558,148.011734 1973.898926,163.093689 
	C1976.926147,174.713501 1974.295776,181.696869 1964.925659,187.711380 
	C1962.275146,189.412689 1959.165161,190.434326 1956.628540,192.268936 
	C1951.543579,195.946503 1946.347412,199.598175 1941.869995,203.952332 
	C1937.148315,208.544113 1936.629761,215.242218 1940.818115,220.292831 
	C1943.757935,223.837967 1948.171021,226.161377 1951.926147,229.030334 
	C1962.758057,234.567383 1973.903931,239.631241 1982.131348,249.090546 
	C1983.966553,251.200500 1985.807861,253.305130 1987.987671,255.898239 
	C1988.638672,256.532501 1988.948120,256.680756 1989.257690,256.829041 
z"/>
<path fill="#545656" opacity="1.000000" stroke="none" 
	d="
M1248.861206,355.091919 
	C1236.291504,349.274536 1233.512573,343.303589 1234.513916,328.312988 
	C1236.910400,292.438629 1238.876343,256.535431 1241.006592,220.643356 
	C1241.065063,219.658722 1241.014160,218.667603 1241.014160,217.255569 
	C1237.312012,217.255569 1233.714233,216.905548 1230.208252,217.323807 
	C1221.123413,218.407639 1213.721191,214.650269 1209.590454,206.609695 
	C1208.975342,205.412521 1207.933716,203.968292 1206.776733,203.586792 
	C1192.931641,199.021683 1190.850342,178.945862 1199.859741,168.059662 
	C1204.541016,162.403275 1210.610352,159.828064 1217.657471,159.228333 
	C1249.932373,156.481628 1282.156738,156.709305 1314.332764,160.796387 
	C1323.847290,162.004974 1330.849365,166.426392 1335.137939,175.762497 
	C1335.601074,176.508133 1335.881592,176.682907 1336.161987,176.857697 
	C1336.161987,176.857681 1336.085083,176.811493 1336.093018,177.250214 
	C1336.198242,178.344543 1336.258423,179.008209 1336.398438,179.654587 
	C1340.311646,197.723480 1329.850952,208.566116 1311.613281,205.698486 
	C1303.786865,204.467880 1295.837646,204.018356 1287.363159,203.154755 
	C1287.211548,205.328674 1287.066650,207.084686 1286.970337,208.843369 
	C1286.579956,215.970840 1286.269043,223.103287 1285.811157,230.226334 
	C1284.576782,249.429657 1283.205200,268.624451 1282.037476,287.831696 
	C1281.191284,301.749023 1280.690063,315.687622 1279.801758,329.601868 
	C1279.550903,333.531189 1279.137817,337.680328 1277.660522,341.258636 
	C1272.965576,352.631012 1262.100586,357.624329 1248.861206,355.091919 
z"/>
<path fill="#545454" opacity="1.000000" stroke="none" 
	d="
M464.558197,355.354553 
	C451.919434,350.346039 449.296570,340.645630 450.213074,328.004395 
	C452.870728,291.346405 454.778442,254.634079 456.992889,217.072128 
	C457.296051,213.744736 457.520416,211.278229 457.891968,208.834091 
	C458.570709,204.369431 457.016632,202.544647 452.245148,202.921631 
	C443.031433,203.649551 433.782013,203.925934 424.547394,204.389526 
	C411.982086,200.046860 409.025818,189.984512 410.415802,180.543625 
	C412.259460,168.021057 420.281555,160.331879 433.109528,159.245346 
	C465.178467,156.529129 497.217560,156.709702 529.218506,160.627396 
	C539.123413,161.840012 546.412842,166.256607 550.981140,176.000336 
	C551.685425,178.628677 552.322021,180.538437 552.637939,182.499847 
	C554.313965,192.905685 548.464111,207.299591 532.638000,205.934952 
	C524.713501,205.251633 516.813599,204.253937 508.917816,203.275543 
	C503.692200,202.628036 502.458740,203.533554 502.130768,208.971603 
	C500.772552,231.493042 499.410950,254.014374 498.110260,276.539185 
	C497.029358,295.257446 496.026978,313.980286 494.999390,332.701599 
	C494.307861,345.300354 486.521545,353.742981 473.938141,355.236389 
	C470.850311,355.602875 467.686890,355.332275 464.558197,355.354553 
z"/>
<path fill="#545454" opacity="1.000000" stroke="none" 
	d="
M1603.046997,276.923523 
	C1614.181396,275.448364 1625.302368,273.860840 1636.454712,272.537109 
	C1644.012451,271.640045 1651.602661,270.757111 1659.199097,270.513550 
	C1668.294800,270.221893 1674.586426,274.749176 1678.044678,284.010742 
	C1680.055176,291.912994 1678.740479,298.427338 1674.988159,304.787689 
	C1669.922241,313.374969 1661.624634,315.184143 1652.854736,315.868195 
	C1627.648315,317.834229 1602.924683,322.485992 1578.538940,328.988312 
	C1570.958252,331.009674 1563.471313,332.911652 1555.572266,331.322510 
	C1554.039551,330.332458 1552.527710,329.308350 1550.970703,328.358093 
	C1543.269043,323.657684 1539.902100,316.905060 1540.803589,307.858582 
	C1545.188354,263.855927 1549.532715,219.849136 1553.787964,175.833801 
	C1554.449463,168.991562 1555.068848,162.279953 1559.711670,156.687698 
	C1566.609863,148.379105 1580.377197,145.170563 1589.598755,150.839035 
	C1593.382324,153.164856 1595.728638,157.828949 1598.835205,162.227112 
	C1598.889893,167.005966 1599.094604,171.010178 1598.738647,174.963928 
	C1597.610718,187.493973 1596.282227,200.006073 1595.014160,212.523392 
	C1593.495728,227.511093 1591.921143,242.493240 1590.447998,257.485382 
	C1589.726562,264.829346 1589.179199,272.190460 1588.461426,280.619598 
	C1593.910156,279.238861 1598.478638,278.081177 1603.046997,276.923523 
z"/>
<path fill="#4F868A" opacity="1.000000" stroke="none" 
	d="
M464.635559,355.706757 
	C467.686890,355.332275 470.850311,355.602875 473.938141,355.236389 
	C486.521545,353.742981 494.307861,345.300354 494.999390,332.701599 
	C496.026978,313.980286 497.029358,295.257446 498.110260,276.539185 
	C499.410950,254.014374 500.772552,231.493042 502.130768,208.971603 
	C502.458740,203.533554 503.692200,202.628036 508.917816,203.275543 
	C516.813599,204.253937 524.713501,205.251633 532.638000,205.934952 
	C548.464111,207.299591 554.313965,192.905685 552.637939,182.499847 
	C552.322021,180.538437 551.685425,178.628677 551.141968,176.302490 
	C562.683289,179.921616 569.011292,195.191544 564.906677,207.485794 
	C562.473450,214.773804 556.429382,219.358734 548.638062,219.033218 
	C539.346436,218.645035 530.067200,217.761505 520.811279,216.812744 
	C516.972839,216.419266 516.014893,217.833252 515.816711,221.456558 
	C514.254578,250.003510 512.538025,278.542236 510.787476,307.078522 
	C509.922546,321.178528 509.036041,335.280426 507.876068,349.358124 
	C507.036285,359.550262 498.128418,367.646210 487.021667,368.856750 
	C476.504303,370.003021 468.021576,365.136719 464.635559,355.706757 
z"/>
<path fill="#4F868A" opacity="1.000000" stroke="none" 
	d="
M1248.878418,355.460693 
	C1262.100586,357.624329 1272.965576,352.631012 1277.660522,341.258636 
	C1279.137817,337.680328 1279.550903,333.531189 1279.801758,329.601868 
	C1280.690063,315.687622 1281.191284,301.749023 1282.037476,287.831696 
	C1283.205200,268.624451 1284.576782,249.429657 1285.811157,230.226334 
	C1286.269043,223.103287 1286.579956,215.970840 1286.970337,208.843369 
	C1287.066650,207.084686 1287.211548,205.328674 1287.363159,203.154755 
	C1295.837646,204.018356 1303.786865,204.467880 1311.613281,205.698486 
	C1329.850952,208.566116 1340.311646,197.723480 1336.398438,179.654587 
	C1336.258423,179.008209 1336.198242,178.344543 1336.137573,177.255829 
	C1344.456665,179.616806 1350.405029,188.886902 1350.586792,199.283646 
	C1350.742554,208.192719 1346.428345,215.857590 1338.538696,217.953293 
	C1333.576294,219.271378 1328.027832,218.696228 1322.762573,218.477371 
	C1316.788818,218.229065 1310.826660,217.525162 1304.880981,216.834091 
	C1301.503052,216.441467 1300.148926,217.499344 1299.955688,221.080063 
	C1298.313110,251.491776 1296.561768,281.897980 1294.721069,312.298431 
	C1293.937012,325.247650 1293.182251,338.213165 1291.814331,351.107635 
	C1290.795654,360.709167 1281.469238,368.038300 1270.496094,368.877106 
	C1260.016602,369.678162 1251.947998,364.804413 1248.878418,355.460693 
z"/>
<path fill="#4F868A" opacity="1.000000" stroke="none" 
	d="
M1480.899414,377.437744 
	C1484.025757,377.085602 1487.191406,377.143005 1490.354980,377.086548 
	C1501.563110,376.886597 1510.105713,368.694336 1510.026733,357.480804 
	C1509.849731,332.340332 1509.460205,307.199341 1508.898315,282.064331 
	C1508.470825,262.943634 1507.936401,243.816162 1506.909302,224.720779 
	C1505.981201,207.463318 1504.744263,190.169693 1497.899902,173.539352 
	C1505.551514,175.595108 1509.258423,182.114914 1511.364746,188.767410 
	C1514.703491,199.312347 1517.994629,210.239609 1518.713135,221.175491 
	C1520.598511,249.869446 1521.127686,278.653900 1522.111572,307.405243 
	C1522.777100,326.851501 1523.351318,346.301300 1523.863159,365.752258 
	C1524.196167,378.411835 1520.347046,385.113678 1510.752808,389.108917 
	C1499.201294,393.919220 1485.878784,388.863831 1480.899414,377.437744 
z"/>
<path fill="#4F868A" opacity="1.000000" stroke="none" 
	d="
M1030.034180,333.363770 
	C1033.780396,333.360779 1037.575928,334.046051 1041.361328,333.994202 
	C1053.116943,333.833282 1061.053101,323.381226 1059.561646,311.605865 
	C1057.541870,295.659546 1054.482788,280.005859 1046.948608,265.738220 
	C1042.012451,256.390594 1036.019653,247.566498 1030.038330,238.823898 
	C1027.948364,235.769226 1028.131958,234.145981 1030.631470,231.742538 
	C1046.604248,216.384567 1058.432129,197.934891 1069.576172,178.998642 
	C1072.917358,173.321014 1074.246826,167.300842 1072.088013,160.418930 
	C1086.782104,167.348190 1090.368042,180.459244 1081.967651,194.306290 
	C1070.230225,213.653870 1057.922974,232.516403 1041.096802,247.966080 
	C1045.919189,255.151840 1050.795166,261.835785 1055.061035,268.888763 
	C1065.566406,286.258301 1070.929688,305.362305 1072.905640,325.427979 
	C1073.943604,335.967712 1069.702637,342.872040 1061.018311,346.117981 
	C1051.289673,349.754242 1039.022217,346.777527 1033.336792,339.276154 
	C1032.048096,337.576050 1031.154419,335.576508 1030.034180,333.363770 
z"/>
<path fill="#4F868A" opacity="1.000000" stroke="none" 
	d="
M1892.011475,355.391479 
	C1893.736694,355.679047 1895.706055,356.060699 1897.457275,356.898376 
	C1924.744019,369.951843 1951.084229,367.959106 1975.884155,350.993958 
	C2001.113525,333.735199 2009.225708,302.766479 1998.362793,274.954468 
	C1996.142212,269.268799 1992.920898,263.973938 1990.152954,258.132690 
	C2005.338013,270.374634 2014.001343,286.617188 2015.885132,306.145874 
	C2019.549316,344.131195 1993.197388,370.204651 1960.095093,376.818268 
	C1936.652710,381.501892 1915.169067,377.059448 1896.878906,360.800903 
	C1895.154419,359.267944 1893.721924,357.406616 1892.011475,355.391479 
z"/>
<path fill="#4F868A" opacity="1.000000" stroke="none" 
	d="
M1555.651855,331.666809 
	C1563.471313,332.911652 1570.958252,331.009674 1578.538940,328.988312 
	C1602.924683,322.485992 1627.648315,317.834229 1652.854736,315.868195 
	C1661.624634,315.184143 1669.922241,313.374969 1674.988159,304.787689 
	C1678.740479,298.427338 1680.055176,291.912994 1678.109985,284.360413 
	C1689.174072,288.606537 1693.610352,296.629822 1691.974365,309.077484 
	C1690.590454,319.606720 1682.023560,327.782379 1669.970459,328.749481 
	C1640.516846,331.112823 1611.714722,336.796143 1583.207275,344.359711 
	C1574.453003,346.682373 1566.286255,344.986206 1559.813721,338.166473 
	C1558.144409,336.407532 1557.075928,334.078339 1555.651855,331.666809 
z"/>
<path fill="#4F868A" opacity="1.000000" stroke="none" 
	d="
M786.957947,352.420593 
	C798.412292,354.681366 809.719360,351.910065 821.095825,350.783295 
	C827.870789,350.112335 834.655212,349.266632 841.449097,349.114868 
	C854.227478,348.829468 867.058899,348.311951 879.789978,349.121765 
	C899.426880,350.370758 907.020996,334.210876 903.170410,319.256897 
	C913.088440,322.319122 919.210205,333.115234 917.388977,343.968964 
	C915.414429,355.736053 908.441345,361.924133 896.657349,362.048096 
	C885.845276,362.161865 874.995605,361.474762 864.225403,362.147797 
	C847.835754,363.172028 831.467407,364.781799 815.152710,366.681396 
	C802.453491,368.160034 791.537109,363.139771 786.957947,352.420593 
z"/>
<path fill="#4F868A" opacity="1.000000" stroke="none" 
	d="
M1723.633545,352.701660 
	C1734.768555,351.862732 1745.985229,351.449615 1757.193359,350.867004 
	C1767.615845,350.325134 1778.021484,349.394928 1788.448486,349.023773 
	C1797.197021,348.712311 1806.023682,348.312897 1814.713013,349.094513 
	C1832.995361,350.739105 1843.817383,337.876709 1839.980225,319.450989 
	C1849.534546,321.040527 1855.751343,333.535614 1853.729736,345.249390 
	C1851.933838,355.655609 1844.117065,361.792328 1832.867920,362.085480 
	C1812.622559,362.613068 1792.373535,363.120636 1772.141724,363.998932 
	C1765.208496,364.299896 1758.298706,365.534454 1751.419922,366.609528 
	C1739.446045,368.480865 1727.219849,362.593353 1723.633545,352.701660 
z"/>
<path fill="#4F868A" opacity="1.000000" stroke="none" 
	d="
M1382.641357,378.720215 
	C1386.312744,378.859497 1390.148804,380.038666 1393.827881,379.666138 
	C1403.326294,378.704346 1409.110718,372.782227 1410.985229,362.967987 
	C1413.447632,350.075409 1415.932129,337.185333 1418.186646,324.255737 
	C1419.023315,319.458221 1420.629150,317.345367 1426.126343,318.604187 
	C1430.571411,319.622101 1435.402710,318.896057 1440.058105,319.067017 
	C1447.194336,319.329041 1454.341431,319.531219 1461.446289,320.175537 
	C1462.703735,320.289581 1464.506104,322.289581 1464.780884,323.672211 
	C1465.322266,326.398010 1464.969482,329.301361 1464.956787,332.598816 
	C1455.809570,332.686859 1446.682861,332.453247 1437.579834,331.856140 
	C1433.944702,331.617676 1432.595215,333.062195 1431.983765,336.408295 
	C1429.807495,348.318634 1427.370483,360.181091 1425.161377,372.085663 
	C1422.709961,385.295715 1418.109863,391.349152 1409.133667,392.831573 
	C1398.663208,394.560822 1388.659790,389.339844 1382.641357,378.720215 
z"/>
<path fill="#4F878B" opacity="1.000000" stroke="none" 
	d="
M597.340210,392.174133 
	C606.987732,392.752472 615.890686,391.410461 622.857239,383.670868 
	C628.762207,377.110596 628.205017,368.835602 628.891296,361.014984 
	C630.531372,342.323120 631.727051,323.592407 633.154907,304.881409 
	C633.253418,303.589630 633.786316,302.330963 634.411499,299.923676 
	C641.448486,305.177795 648.084900,309.973541 654.526367,315.018097 
	C657.229614,317.135162 659.520264,319.778961 662.049927,322.520233 
	C657.298462,319.756226 652.495605,316.655304 647.027344,313.124786 
	C646.318909,321.400513 645.644531,329.101929 645.003235,336.806122 
	C643.653259,353.022522 642.433899,369.250824 640.936401,385.453491 
	C640.101746,394.483429 634.722107,400.547638 626.538879,403.536438 
	C618.215942,406.576294 609.692993,406.396057 602.521484,400.325195 
	C600.238892,398.392883 599.056580,395.160858 597.340210,392.174133 
z"/>
<path fill="#4F868A" opacity="1.000000" stroke="none" 
	d="
M848.393127,226.999420 
	C844.544128,227.311462 840.749512,227.007431 836.956238,227.024475 
	C833.901855,227.038193 832.661438,225.822540 833.185181,222.804123 
	C834.743408,213.824783 836.447571,204.866211 837.754578,195.850220 
	C838.239746,192.503357 839.876648,191.881454 842.766907,191.977005 
	C855.530518,192.398956 868.355896,192.066132 881.050537,193.209686 
	C901.729370,195.072433 907.825073,179.602615 904.246460,164.133911 
	C914.392395,167.413757 920.624207,178.781937 918.593872,189.893631 
	C916.550171,201.078445 908.444763,207.297241 896.315002,206.827240 
	C883.363037,206.325348 870.408936,205.819534 857.469849,205.072098 
	C853.409485,204.837570 851.336731,205.888947 850.924255,210.259735 
	C850.410034,215.709854 849.300598,221.103806 848.393127,226.999420 
z"/>
<path fill="#4F868A" opacity="1.000000" stroke="none" 
	d="
M950.995117,349.531281 
	C955.132996,348.800903 959.503784,349.027863 963.492065,347.901215 
	C974.499146,344.791809 978.747559,337.901276 980.087280,324.242859 
	C982.172791,302.981293 984.698364,281.762848 987.054504,260.528015 
	C987.122314,259.917114 987.382507,259.327545 988.034851,257.033234 
	C992.871033,263.154327 996.980286,268.355377 1001.151855,273.855469 
	C1000.466370,278.675842 999.528931,283.175262 999.003906,287.722260 
	C996.831665,306.534393 994.891174,325.373718 992.645691,344.176758 
	C991.524231,353.567352 984.434692,360.182281 974.371582,361.876007 
	C964.067200,363.610382 955.759766,359.333405 950.995117,349.531281 
z"/>
<path fill="#4F868A" opacity="1.000000" stroke="none" 
	d="
M1785.265991,227.199173 
	C1781.573975,227.381546 1777.768311,227.028336 1773.963135,227.035309 
	C1770.934204,227.040863 1769.576660,225.831924 1770.030640,222.844360 
	C1771.451904,213.491547 1772.734253,204.108521 1774.593140,194.842026 
	C1774.844360,193.589828 1778.091431,192.121414 1779.940430,192.136200 
	C1794.728149,192.254440 1809.511719,192.821182 1824.299683,193.003967 
	C1831.180420,193.089020 1837.404907,188.240326 1840.029297,181.863419 
	C1842.353027,176.217209 1842.368774,170.555191 1841.036621,164.324020 
	C1849.516846,165.822021 1856.739624,177.030258 1854.914185,190.183319 
	C1853.579346,199.802231 1845.982910,206.815445 1835.503540,206.765396 
	C1822.208252,206.701935 1808.906494,206.019485 1795.627441,205.257202 
	C1788.884766,204.870117 1788.392456,204.831909 1787.282715,211.550156 
	C1786.445435,216.618759 1785.853638,221.727921 1785.265991,227.199173 
z"/>
<path fill="#4F868A" opacity="1.000000" stroke="none" 
	d="
M1603.173828,276.542542 
	C1598.478638,278.081177 1593.910156,279.238861 1588.461426,280.619598 
	C1589.179199,272.190460 1589.726562,264.829346 1590.447998,257.485382 
	C1591.921143,242.493240 1593.495728,227.511093 1595.014160,212.523392 
	C1596.282227,200.006073 1597.610718,187.493973 1598.738647,174.963928 
	C1599.094604,171.010178 1598.889893,167.005966 1598.942383,162.567902 
	C1608.660645,165.558411 1613.570190,172.069229 1612.640747,182.070709 
	C1609.723999,213.452591 1606.441528,244.800476 1603.173828,276.542542 
z"/>
<path fill="#4F868A" opacity="1.000000" stroke="none" 
	d="
M696.229919,290.872528 
	C691.366638,287.197662 686.820923,283.389679 682.023376,279.370758 
	C687.150452,274.762756 692.153259,270.697357 696.652405,266.135193 
	C706.809082,255.836166 714.991211,244.277771 718.071838,229.767487 
	C720.291199,219.313629 718.876465,209.308990 714.370422,199.676712 
	C713.810852,198.480621 713.411926,197.209412 712.892822,195.612289 
	C715.087646,197.112869 717.670532,198.686569 719.514771,200.881012 
	C734.175537,218.325806 736.347717,238.210190 725.585449,258.380280 
	C718.588440,271.493530 708.707336,282.178619 696.229919,290.872528 
z"/>
<path fill="#4F868A" opacity="1.000000" stroke="none" 
	d="
M836.781799,304.111786 
	C832.661194,305.024841 828.554260,305.682983 824.439819,305.732941 
	C823.430664,305.745209 821.421143,303.660217 821.526489,302.726044 
	C822.546692,293.679169 823.755737,284.642700 825.358826,275.683441 
	C825.616577,274.243195 828.070435,272.160767 829.529236,272.144135 
	C837.142517,272.057343 844.818237,272.056122 852.368286,272.926849 
	C869.064819,274.852448 881.202026,261.736115 878.163940,244.164337 
	C888.703918,247.945480 893.970947,257.613464 891.691284,268.514313 
	C889.547729,278.764709 880.415039,286.286957 869.942749,286.079132 
	C861.476562,285.911102 853.018555,285.353210 844.554688,285.025024 
	C842.931824,284.962128 841.298828,285.163483 839.239197,285.263947 
	C838.404236,291.532898 837.598450,297.582825 836.781799,304.111786 
z"/>
<path fill="#4F868A" opacity="1.000000" stroke="none" 
	d="
M1773.197754,304.378998 
	C1769.601807,305.114532 1765.957275,305.354187 1762.343750,305.829163 
	C1759.039551,306.263519 1757.605103,305.033356 1758.087280,301.706482 
	C1759.347656,293.009918 1760.733765,284.329163 1761.819336,275.610931 
	C1762.207153,272.496796 1763.785645,271.809814 1766.496338,271.942169 
	C1774.616089,272.338562 1782.739258,272.678894 1790.863037,272.985046 
	C1805.183228,273.524658 1815.233765,263.728119 1815.061890,249.439728 
	C1815.043823,247.943329 1814.999268,246.447266 1814.967896,244.492401 
	C1824.649902,247.743210 1830.245117,257.224915 1828.421021,266.829987 
	C1826.208130,278.482452 1817.794189,286.266541 1807.191650,286.076416 
	C1798.406738,285.918884 1789.616943,285.543762 1780.852661,284.931030 
	C1776.703125,284.640930 1775.299561,286.400391 1774.962646,290.187439 
	C1774.552002,294.803711 1773.779053,299.387726 1773.197754,304.378998 
z"/>
<path fill="#4F868A" opacity="1.000000" stroke="none" 
	d="
M1951.911621,228.605011 
	C1948.171021,226.161377 1943.757935,223.837967 1940.818115,220.292831 
	C1936.629761,215.242218 1937.148315,208.544113 1941.869995,203.952332 
	C1946.347412,199.598175 1951.543579,195.946503 1956.628540,192.268936 
	C1959.165161,190.434326 1962.275146,189.412689 1964.925659,187.711380 
	C1974.295776,181.696869 1976.926147,174.713501 1974.088867,163.376648 
	C1989.269165,169.370911 1993.784058,188.826447 1982.014648,198.444687 
	C1978.225098,201.541504 1973.331543,203.246658 1969.193970,205.969604 
	C1965.070801,208.683289 1961.139526,211.728561 1957.348877,214.897247 
	C1953.277832,218.300491 1951.545044,222.861176 1951.911621,228.605011 
z"/>
<path fill="#4E868A" opacity="1.000000" stroke="none" 
	d="
M1005.054199,194.341644 
	C1000.940369,198.911865 996.824280,203.027969 991.913940,207.938385 
	C991.913940,185.542786 991.913940,164.785950 991.911499,143.567719 
	C1001.401733,146.148254 1006.258606,154.621002 1005.735474,166.658264 
	C1005.341431,175.727448 1005.268127,184.810593 1005.054199,194.341644 
z"/>
<path fill="#4F868A" opacity="1.000000" stroke="none" 
	d="
M424.638611,204.736557 
	C433.782013,203.925934 443.031433,203.649551 452.245148,202.921631 
	C457.016632,202.544647 458.570709,204.369431 457.891968,208.834091 
	C457.520416,211.278229 457.296051,213.744736 456.965881,216.634247 
	C451.991577,217.339691 447.056152,217.845062 442.121979,217.833008 
	C433.428864,217.811752 428.154846,213.797485 424.638611,204.736557 
z"/>
<path fill="#528B8F" opacity="1.000000" stroke="none" 
	d="
M1918.855469,261.528564 
	C1930.791992,267.351288 1943.570312,272.376923 1952.670776,283.094757 
	C1953.197388,283.714844 1953.514526,284.512665 1954.009888,285.563293 
	C1941.247681,279.542419 1927.952637,273.846191 1918.855469,261.528564 
z"/>
<path fill="#4F878B" opacity="1.000000" stroke="none" 
	d="
M662.247131,323.188538 
	C663.403259,323.668182 664.670349,324.456390 666.000366,325.581116 
	C664.828247,325.110748 663.593201,324.303925 662.247131,323.188538 
z"/>
<path fill="#4F878B" opacity="1.000000" stroke="none" 
	d="
M666.196167,326.193176 
	C666.597046,326.157898 667.123352,326.388824 667.771729,326.894226 
	C667.369690,326.932251 666.845642,326.695831 666.196167,326.193176 
z"/>
<path fill="#4F878B" opacity="1.000000" stroke="none" 
	d="
M667.894043,327.387512 
	C668.249817,327.443420 668.664795,327.771576 669.149414,328.365143 
	C668.797119,328.306976 668.375183,327.983368 667.894043,327.387512 
z"/>
<path fill="#4F878B" opacity="1.000000" stroke="none" 
	d="
M669.450562,329.048462 
	C669.826538,329.068115 670.282837,329.354248 670.831238,329.903809 
	C670.459167,329.883148 669.995117,329.599060 669.450562,329.048462 
z"/>
<path fill="#4F868A" opacity="1.000000" stroke="none" 
	d="
M1989.122803,256.603394 
	C1988.948120,256.680756 1988.638672,256.532501 1988.187378,256.164337 
	C1988.359741,256.088867 1988.673950,256.233307 1989.122803,256.603394 
z"/>
<path fill="#4F868A" opacity="1.000000" stroke="none" 
	d="
M1336.067383,176.624298 
	C1335.881592,176.682907 1335.601074,176.508133 1335.221436,176.101379 
	C1335.405884,176.043243 1335.689331,176.217072 1336.067383,176.624298 
z"/>
<path fill="#4F868A" opacity="1.000000" stroke="none" 
	d="
M1890.204956,353.165741 
	C1890.425659,353.017334 1890.697754,353.181213 1890.975708,353.692810 
	C1890.767700,353.791260 1890.526001,353.603760 1890.204956,353.165741 
z"/>
<path fill="#4E868A" opacity="1.000000" stroke="none" 
	d="
M1451.142578,274.831604 
	C1445.062256,274.487701 1438.981689,274.143799 1432.117188,273.755554 
	C1438.884888,254.127518 1448.069458,236.594788 1461.959106,221.018829 
	C1462.283569,230.755264 1462.608154,240.491699 1462.622559,250.882233 
	C1461.457397,252.742828 1460.382568,253.849915 1459.784180,255.172562 
	C1456.834351,261.694214 1454.010742,268.272980 1451.142578,274.831604 
z"/>
<path fill="#81DBE1" opacity="1.000000" stroke="none" 
	d="
M1451.597046,274.839539 
	C1454.010742,268.272980 1456.834351,261.694214 1459.784180,255.172562 
	C1460.382568,253.849915 1461.457397,252.742828 1462.576904,251.359985 
	C1462.841187,258.885895 1462.841187,266.588165 1462.841187,274.847504 
	C1459.477539,274.847504 1455.764526,274.847504 1451.597046,274.839539 
z"/>
</svg>